<?xml version="1.0" encoding="UTF-8"?>
<!DOCTYPE svg PUBLIC "-//W3C//DTD SVG 1.1//EN" "http://www.w3.org/Graphics/SVG/1.1/DTD/svg11.dtd">
<svg xmlns="http://www.w3.org/2000/svg" version="1.1" width="512px" height="512px" style="shape-rendering:geometricPrecision; text-rendering:geometricPrecision; image-rendering:optimizeQuality; fill-rule:evenodd; clip-rule:evenodd" xmlns:xlink="http://www.w3.org/1999/xlink">
<g><path style="opacity:0.972" fill="#000000" d="M 172.5,-0.5 C 258.167,-0.5 343.833,-0.5 429.5,-0.5C 445.15,4.31775 455.317,14.6511 460,30.5C 460.667,150.5 460.667,270.5 460,390.5C 452.492,414.828 436.326,424.662 411.5,420C 404.306,412.916 403.639,405.249 409.5,397C 411.167,396 412.833,395 414.5,394C 422.272,394.538 427.772,391.371 431,384.5C 431.996,267.753 431.663,151.086 430,34.5C 428.337,32.0833 426.171,30.25 423.5,29C 341.833,28.3333 260.167,28.3333 178.5,29C 171.838,32.8166 168.672,38.6499 169,46.5C 162.654,55.321 154.82,56.821 145.5,51C 144.333,49.1667 143.167,47.3333 142,45.5C 140.005,22.0116 150.171,6.67829 172.5,-0.5 Z"/></g>
<g><path style="opacity:0.975" fill="#000000" d="M 338.5,511.5 C 252.833,511.5 167.167,511.5 81.5,511.5C 65.8497,506.682 55.683,496.349 51,480.5C 50.3333,360.5 50.3333,240.5 51,120.5C 55.0674,104.766 64.9007,94.5991 80.5,90C 123.635,88.8495 166.802,88.3495 210,88.5C 253.198,88.3495 296.365,88.8495 339.5,90C 355.072,94.5731 364.906,104.74 369,120.5C 369.667,240.5 369.667,360.5 369,480.5C 364.317,496.349 354.15,506.682 338.5,511.5 Z M 90.5,117.5 C 170.167,117.333 249.834,117.5 329.5,118C 335.215,118.715 338.715,121.882 340,127.5C 340.667,242.833 340.667,358.167 340,473.5C 339.021,476.625 337.187,479.125 334.5,481C 252.557,482.658 170.557,482.992 88.5,482C 85.3749,481.021 82.8749,479.187 81,476.5C 79.3374,359.914 79.0041,243.247 80,126.5C 81.8589,121.467 85.3589,118.467 90.5,117.5 Z"/></g>
</svg>
